<svg version="1.1" id="Layer_1" xmlns="http://www.w3.org/2000/svg" xmlns:xlink="http://www.w3.org/1999/xlink" x="0px" y="0px"
	 width="100%" viewBox="0 0 672 432" enable-background="new 0 0 672 432" xml:space="preserve">
<path fill="#000000" opacity="1.000000" stroke="none" 
	d="
M204.059448,220.751465 
	C209.019043,230.105377 217.357666,233.812515 228.611206,232.351074 
	C245.088821,230.211212 260.125122,223.963806 274.407288,215.957504 
	C328.504364,185.631744 372.996307,144.757339 407.845703,93.431122 
	C408.754639,92.092384 410.027832,90.881348 410.033783,88.800987 
	C407.773590,87.096039 404.852478,87.075371 402.222229,86.231804 
	C399.732422,85.433281 396.911865,85.581299 393.841125,82.988182 
	C408.608185,75.474991 422.621368,67.654953 438.328247,60.579781 
	C437.587738,77.285583 436.899384,92.815163 436.178040,109.089516 
	C430.816315,106.378593 428.716217,101.181374 424.423065,98.556236 
	C421.915283,99.173660 421.176727,101.430931 419.970886,103.115845 
	C387.975311,147.822937 350.070526,186.522446 303.926971,216.735382 
	C283.669647,229.999039 262.569061,241.738953 238.810471,247.645645 
	C230.596573,249.687729 222.293671,251.135101 213.642715,249.495560 
	C199.999329,246.909851 192.776215,238.449585 193.755234,224.754105 
	C194.270767,217.542374 196.836487,210.821915 200.229996,204.447403 
	C200.696594,203.570908 201.254654,202.732910 202.949219,202.813736 
	C202.265045,208.773270 201.600983,214.707382 204.059448,220.751465 
z"/>
<path fill="#000000" opacity="1.000000" stroke="none" 
	d="
M220.263092,159.513687 
	C227.261703,111.722588 266.997040,70.509247 315.448212,60.699589 
	C341.480072,55.429050 366.760406,57.847145 391.073120,68.853401 
	C392.284302,69.401688 393.449615,70.053467 394.622803,70.682243 
	C395.056458,70.914680 395.451172,71.219856 395.816315,71.460663 
	C390.953033,77.981384 380.105438,81.736435 373.204834,79.517944 
	C312.678314,60.059139 248.822647,97.620628 236.702850,160.231613 
	C233.106445,178.810715 234.566269,197.367004 241.090256,215.335678 
	C243.156754,221.027344 243.047958,221.179596 237.129135,222.659805 
	C226.663605,225.277084 226.669785,225.275238 223.671341,215.236359 
	C218.245865,197.071808 217.223846,178.628189 220.263092,159.513687 
z"/>
<path fill="#000000" opacity="1.000000" stroke="none" 
	d="
M373.459595,172.655365 
	C401.237213,172.651764 428.564514,172.779785 455.888947,172.555954 
	C460.992859,172.514145 462.521179,174.086426 462.357971,179.100037 
	C461.967987,191.081970 463.020691,189.313126 452.192139,189.347870 
	C426.698944,189.429688 401.205322,189.364655 375.711853,189.387405 
	C373.756317,189.389145 371.729980,189.042358 370.010529,189.878662 
	C368.803986,191.709946 369.986206,192.927628 370.653259,194.199097 
	C374.522125,201.573486 378.554993,208.865967 382.243683,216.328857 
	C383.856079,219.591019 385.912048,220.845871 389.609650,220.813095 
	C409.269775,220.638840 428.932251,220.714111 448.593811,220.741898 
	C450.384430,220.744431 452.261719,220.325714 454.649475,221.771530 
	C453.411499,227.245270 450.958344,232.379013 447.784180,237.177689 
	C446.881775,238.541946 445.053192,238.206970 443.575348,238.201401 
	C421.747864,238.119324 399.920502,237.985687 378.092957,237.948746 
	C375.043243,237.943588 373.250824,236.699951 371.852417,233.999680 
	C365.418488,221.576157 358.908966,209.189377 352.217987,196.902969 
	C350.356110,193.484009 350.820374,191.287476 353.758240,188.764389 
	C358.679260,184.538162 363.247162,179.899170 367.934570,175.403564 
	C369.386658,174.010864 370.723633,172.481415 373.459595,172.655365 
z"/>
<path fill="#000000" opacity="1.000000" stroke="none" 
	d="
M344.834167,300.131744 
	C304.623871,300.166687 271.759766,285.392883 245.127365,254.353989 
	C251.065384,252.339218 255.975281,250.471741 261.012054,249.055634 
	C263.278015,248.418533 264.384583,250.856842 265.734222,252.199173 
	C281.400726,267.781128 299.900604,278.109955 321.770966,281.752747 
	C359.095825,287.969696 391.177429,277.515167 417.696442,250.501907 
	C420.387360,247.760834 422.979248,246.382446 426.782959,246.571762 
	C430.755188,246.769501 434.752502,246.430252 438.739349,246.403641 
	C439.347504,246.399582 439.958496,246.816162 440.551880,247.032242 
	C434.998688,269.540222 386.443878,296.533905 344.834167,300.131744 
z"/>
<path fill="#000000" opacity="1.000000" stroke="none" 
	d="
M313.253601,129.281158 
	C317.619781,121.768517 330.310791,121.576721 334.310211,128.743271 
	C338.038635,135.424103 341.449890,142.281494 345.149445,148.979050 
	C346.719513,151.821472 346.288361,153.932190 343.802185,155.920120 
	C341.465576,157.788467 339.178741,159.740768 337.042633,161.832474 
	C334.560822,164.262741 333.145996,163.372147 331.829987,160.663483 
	C329.587982,156.048920 327.199646,151.505447 324.900421,146.986374 
	C322.403625,147.331070 322.230560,149.298965 321.537231,150.619431 
	C315.350677,162.402283 309.247772,174.229279 303.167480,186.067520 
	C302.091583,188.162292 301.020844,190.168640 298.921844,191.467545 
	C291.849243,195.844238 284.817505,200.287018 277.741974,204.658890 
	C276.816071,205.231003 275.851593,206.090347 273.799469,205.027771 
	C286.897003,179.874222 299.983459,154.741959 313.253601,129.281158 
z"/>
<path fill="#000000" opacity="1.000000" stroke="none" 
	d="
M406.398041,351.798035 
	C409.592834,338.626373 421.526855,331.389648 434.738373,334.273865 
	C447.367828,337.031006 455.269745,348.156403 452.920258,359.872711 
	C450.229462,373.291016 438.634430,380.767029 424.463440,378.220551 
	C411.979431,375.977234 404.292328,364.975800 406.398041,351.798035 
M427.846497,369.616272 
	C429.488708,369.471191 431.195404,369.564484 432.762299,369.140839 
	C440.679565,367.000061 444.543823,359.473602 441.911499,351.551849 
	C439.471130,344.207672 431.435730,340.665344 424.120758,343.708893 
	C419.140411,345.781067 416.031128,351.037018 416.273346,356.974182 
	C416.533356,363.346771 419.691162,367.018768 427.846497,369.616272 
z"/>
<path fill="#000000" opacity="1.000000" stroke="none" 
	d="
M290.444702,374.614929 
	C276.120819,382.717133 259.541107,378.016113 254.195526,364.639587 
	C249.820679,353.692230 254.187149,341.785034 264.509338,336.514160 
	C275.927094,330.683868 290.011810,334.024353 296.509705,344.103699 
	C302.874847,353.977081 300.471588,366.604279 290.444702,374.614929 
M263.805023,361.303864 
	C264.173798,362.046448 264.472351,362.834930 264.922577,363.524323 
	C268.362091,368.790894 274.739716,371.069702 280.575592,369.151489 
	C286.335297,367.258301 290.104218,361.438843 289.623352,355.180969 
	C289.129395,348.752228 284.884674,344.088104 278.495605,342.953705 
	C268.157715,341.118195 261.934937,348.427582 263.805023,361.303864 
z"/>
<path fill="#000000" opacity="1.000000" stroke="none" 
	d="
M460.724426,343.095123 
	C460.712494,334.441498 460.712311,334.454163 468.784698,334.567535 
	C473.107971,334.628296 477.434082,334.561371 481.755157,334.684998 
	C489.423767,334.904388 495.094391,338.544586 497.145294,344.430756 
	C499.599945,351.475555 497.856262,357.170715 491.630127,362.530823 
	C491.265533,362.844696 491.025421,363.303101 490.608368,363.850372 
	C492.267792,368.687286 496.452667,372.148987 498.371460,376.899078 
	C492.127563,379.630280 488.842712,378.556305 485.339630,373.523895 
	C482.847595,369.943878 481.693146,364.635773 475.353729,365.323883 
	C472.522339,365.631226 470.923065,366.292053 471.130127,369.378510 
	C471.207794,370.536804 471.055176,371.710571 471.133301,372.868805 
	C471.381836,376.554504 470.069183,378.361603 466.007812,378.272827 
	C462.234619,378.190338 460.638306,376.989502 460.712860,373.013397 
	C460.896759,363.205322 460.743225,353.390961 460.724426,343.095123 
M486.115051,345.393066 
	C482.374115,342.197601 477.915985,343.365448 473.658752,343.376953 
	C472.574677,343.379852 471.881470,344.038940 471.440216,345.074005 
	C468.407410,352.188751 471.954956,357.338043 479.638611,356.930420 
	C486.979950,356.540955 489.322052,352.869385 486.115051,345.393066 
z"/>
<path fill="#000000" opacity="1.000000" stroke="none" 
	d="
M201.890961,378.203491 
	C194.914642,378.195984 188.417633,378.066498 181.927811,378.227722 
	C178.182632,378.320709 176.528656,377.125732 176.601578,373.084595 
	C176.805878,361.765381 176.771042,350.438904 176.621292,339.118042 
	C176.575714,335.671082 177.804626,334.350433 181.233749,334.421600 
	C189.222885,334.587463 197.217224,334.618530 205.207870,334.540741 
	C208.427673,334.509399 210.202545,335.394012 210.158615,339.025482 
	C210.112518,342.837341 207.940201,343.292877 204.913361,343.214478 
	C200.586960,343.102386 196.252441,343.284760 191.927170,343.152618 
	C188.703888,343.054108 186.988449,344.004791 186.977371,347.631897 
	C186.966507,351.185944 188.805115,351.779297 191.710556,351.694977 
	C195.204086,351.593567 198.707306,351.793854 202.198776,351.662628 
	C205.415298,351.541687 207.215179,352.515533 207.215744,356.120728 
	C207.216278,359.601868 205.337753,360.293976 202.431061,360.229736 
	C198.603302,360.145142 194.768433,360.322754 190.943344,360.191345 
	C186.715515,360.046082 186.712769,363.002625 186.459991,365.884521 
	C186.169678,369.194305 188.148407,369.723267 190.845901,369.692291 
	C197.140015,369.620026 203.435532,369.669250 209.531738,369.669250 
	C211.767944,377.685699 211.290939,378.197266 201.890961,378.203491 
z"/>
<path fill="#000000" opacity="1.000000" stroke="none" 
	d="
M127.563141,368.626831 
	C132.203247,358.267548 136.784164,348.296173 141.140839,338.227783 
	C142.550156,334.970764 144.931107,334.543396 147.964752,334.598541 
	C150.583344,334.646149 152.778427,334.794830 154.051102,337.699097 
	C159.454361,350.029114 165.015030,362.290070 170.487991,374.589722 
	C170.806549,375.305603 170.858932,376.139923 171.025925,376.878174 
	C164.303619,379.698822 161.428009,378.744263 159.024292,372.550537 
	C157.814468,369.433136 156.023102,368.024017 152.677887,368.325195 
	C150.533722,368.518250 148.324921,368.582458 146.200729,368.294342 
	C140.560593,367.529327 136.936569,369.035339 134.952927,375.057465 
	C133.202698,380.371002 128.443878,377.695435 124.523415,377.683197 
	C124.316528,374.053436 126.516884,371.725677 127.563141,368.626831 
M150.143936,351.442932 
	C149.420105,350.024323 149.340576,348.222076 147.479019,347.145813 
	C144.793137,350.959991 143.563904,355.318970 141.804520,359.926483 
	C145.746628,360.082825 149.234756,360.486298 153.039993,359.283417 
	C152.096832,356.692261 151.261658,354.397827 150.143936,351.442932 
z"/>
<path fill="#000000" opacity="1.000000" stroke="none" 
	d="
M523.047974,365.851013 
	C517.567078,364.924957 515.877075,366.970245 516.249268,372.077057 
	C516.667847,377.819550 515.433960,378.617676 510.196930,378.110718 
	C507.731232,377.871979 506.655823,376.819122 506.663330,374.351501 
	C506.699738,362.393433 506.714844,350.434998 506.650879,338.477142 
	C506.636047,335.710754 507.827026,334.590698 510.527435,334.627991 
	C516.505127,334.710632 522.499695,334.429230 528.459106,334.778503 
	C537.528625,335.310028 543.251221,341.197601 543.361206,349.566650 
	C543.478821,358.513031 538.256775,364.220062 528.918335,365.320648 
	C527.104858,365.534393 525.281555,365.665222 523.047974,365.851013 
M516.480774,352.882141 
	C517.905518,357.050323 520.671326,357.997833 527.379150,356.864227 
	C531.051514,356.243622 532.999451,353.960114 533.308044,350.534729 
	C533.608582,347.200195 531.686707,344.874756 528.593445,343.718262 
	C520.426941,340.665039 516.306335,343.504486 516.480774,352.882141 
z"/>
<path fill="#000000" opacity="1.000000" stroke="none" 
	d="
M332.917511,376.245178 
	C324.423553,380.039795 316.394806,379.079163 308.365082,375.916901 
	C304.581268,374.426727 304.590546,372.093536 306.034790,368.816010 
	C307.604034,365.254974 309.499634,367.097900 311.624298,367.941803 
	C316.290558,369.795197 321.045990,371.341949 326.139221,369.593262 
	C327.769226,369.033661 329.312317,368.229584 329.492981,366.309143 
	C329.682312,364.296631 328.131744,363.237000 326.583740,362.690186 
	C322.987152,361.419739 319.280609,360.464569 315.643097,359.304871 
	C308.581512,357.053497 304.791870,352.780487 304.837219,347.217560 
	C304.886749,341.143799 309.156921,336.507446 316.343048,334.549835 
	C322.372620,332.907288 328.173828,333.907227 334.013458,335.600067 
	C337.770813,336.689331 337.924316,338.882111 336.889679,342.074005 
	C335.792908,345.457428 333.887604,345.367737 331.144928,344.190857 
	C327.754791,342.736145 324.153412,341.867065 320.439362,342.491241 
	C318.082672,342.887299 315.739014,343.852051 315.480530,346.643646 
	C315.227020,349.381561 317.506500,350.246582 319.596100,350.901031 
	C322.924896,351.943604 326.320709,352.770355 329.659210,353.783813 
	C334.677002,355.307037 338.795197,357.658447 339.604004,363.615234 
	C340.383026,369.352448 337.860291,373.189941 332.917511,376.245178 
z"/>
<path fill="#000000" opacity="1.000000" stroke="none" 
	d="
M388.589661,333.808624 
	C393.186035,334.601288 397.047760,336.016083 400.323578,338.786011 
	C402.082672,340.273438 403.000000,341.939545 400.923737,343.767273 
	C399.236023,345.253052 398.067810,348.446075 394.878937,346.152374 
	C392.835205,344.682404 390.766144,343.446350 388.152832,343.137726 
	C381.407227,342.341003 376.057159,344.846802 373.510712,350.195770 
	C370.907990,355.662903 372.226288,362.149963 376.748901,366.130432 
	C381.582642,370.384674 387.591553,370.826569 393.333038,367.263275 
	C395.142181,366.140472 396.581299,364.496613 398.999847,366.511932 
	C402.986755,369.834106 402.834198,372.082214 398.002441,375.203674 
	C389.984375,380.383514 378.051697,379.744232 370.329010,373.721100 
	C362.818451,367.863495 359.934906,357.859711 363.086456,348.594940 
	C366.122040,339.671265 374.836334,333.784180 385.156708,333.696075 
	C386.154144,333.687561 387.152130,333.738464 388.589661,333.808624 
z"/>
<path fill="#000000" opacity="1.000000" stroke="none" 
	d="
M445.906067,141.233612 
	C431.187561,141.234055 416.952728,141.234055 402.478882,141.234055 
	C405.208313,131.510193 414.721710,124.084473 423.567078,124.048721 
	C430.399994,124.021095 437.235199,124.081169 444.064789,123.914062 
	C447.136871,123.838898 449.140625,125.030151 450.392426,127.757324 
	C452.242554,131.787918 454.540039,135.648026 455.470886,140.258148 
	C452.310760,141.895920 449.276825,140.958832 445.906067,141.233612 
z"/>
<path fill="#000000" opacity="1.000000" stroke="none" 
	d="
M249.609009,334.979431 
	C252.598083,341.305054 251.539062,343.122498 245.343536,343.207184 
	C244.179199,343.223083 243.004990,343.316162 241.851883,343.203766 
	C238.386826,342.866150 237.154312,344.367157 237.224274,347.825928 
	C237.392487,356.140259 237.136398,364.463531 237.324463,372.776978 
	C237.409576,376.539551 236.273560,378.199677 232.261612,378.205902 
	C228.221664,378.212158 226.600327,376.886261 226.718842,372.692780 
	C226.949020,364.548279 226.585602,356.386963 226.815399,348.242432 
	C226.928177,344.245209 225.420380,342.762665 221.583435,343.149017 
	C220.101303,343.298218 218.590515,343.137054 217.094589,343.180267 
	C214.232193,343.262909 212.847885,342.049011 212.801987,339.041504 
	C212.753311,335.851868 214.037613,334.565491 217.240372,334.609985 
	C227.882812,334.757843 238.527344,334.757050 249.609009,334.979431 
z"/>
<path fill="#000000" opacity="1.000000" stroke="none" 
	d="
M546.320190,374.380310 
	C545.345581,371.031281 546.383728,368.687958 548.987183,367.279694 
	C550.985046,366.198944 553.186646,366.348877 555.091064,367.799225 
	C557.199219,369.404724 557.625061,371.643524 557.059448,374.057220 
	C556.569519,376.148407 555.182861,377.618713 553.049500,378.049835 
	C550.069275,378.652069 547.893738,377.397461 546.320190,374.380310 
z"/>
</svg>