<?xml version="1.0" encoding="utf-8" ?><svg xmlns="http://www.w3.org/2000/svg" xmlns:xlink="http://www.w3.org/1999/xlink" width="1536" height="1024" viewBox="0 0 1536 1024"><path fill="#0A0C08" d="M0 0L1536 0L1536 1024L0 1024L0 0Z"/><path fill="#FEFEF0" d="M745.862 85.0935C755.341 84.6164 764.833 84.4656 774.321 84.6413C887.354 85.2601 995.354 131.48 1073.85 212.831C1153.59 294.48 1197.83 404.335 1196.96 518.467C1155.57 550.473 1116.53 508.764 1080.35 492.716C1072.58 489.271 1063.84 489.035 1055.47 489.169C1050.04 478.441 1044.2 467.925 1037.96 457.647C1072.14 448.143 1093.05 457.002 1121.96 473.91C1141.28 485.211 1163.13 492.246 1181.67 476.009C1181.23 466.456 1178.2 451.971 1176.06 442.614C1161.52 378.849 1131.02 324.508 1091.93 272.819C1090.73 335.599 1094.92 364.346 1135.78 416.58C1142.03 424.571 1154.21 435.908 1158.38 444.936C1159.32 446.984 1159.01 449.198 1157.95 451.247C1154.92 454.18 1151.05 454.041 1147.07 454.033C1117.94 453.971 1095.95 432.143 1068.55 425.372C1050.86 421.001 1036.08 422.531 1018.24 425.183C1012.08 418.078 1006.35 410.448 1000.04 403.287C989.784 391.789 978.765 380.996 967.058 370.979C960.146 364.959 952.819 359.181 945.885 353.202C943.552 351.191 943.359 350.094 944.274 347.488C947.722 343.862 952.507 342.277 957.256 340.91C985.973 332.645 1008.81 340.752 1033.58 354.11C1038.64 327.344 1064.75 281.803 1090.43 270.721C1081.19 258.061 1065.45 241.089 1054.44 229.88C984.902 159.055 883.677 114.315 784.687 112.428C764.817 111.704 744.921 112.295 725.129 114.197C609.428 126.041 515.255 183.008 442.565 272.216C445.365 273.709 448.086 275.348 450.714 277.127C476.905 294.501 496.052 325.533 502.215 356.177C532.425 337.647 564.22 331.967 596.483 349.964C566.975 370.92 537.836 396.859 516.007 425.882C449.361 407.556 426.382 468.173 373.241 447.01C377.221 442.212 384.563 434.865 388.958 429.981C435.115 378.686 445.669 339.49 442.208 272.561C410.211 313.317 381.889 367.117 366.858 416.515C361.074 435.525 356.872 457.033 353.543 476.579C393.165 504.858 424.669 459.738 461.753 453.768C474.165 451.77 483.88 453.607 495.718 456.452C490.172 467.206 483.824 477.021 478.229 488.324C442.025 486.978 425.617 517.087 391.692 526.115C373.277 531.016 356.161 531.196 339.069 521.944C337.609 412.882 377.256 307.268 450.12 226.121C525.782 141.315 632.354 90.4958 745.862 85.0935Z"/><path fill="#FEFEF0" d="M709.047 547.124C757.567 564.045 779.535 562.508 827.109 547.197C827.586 590.942 850.098 593.986 865.637 628.139C875.595 650.027 864.979 679.793 850.975 697.944C839.644 712.632 825.186 725.536 817.535 742.931C805.514 770.259 810.458 804.447 825.297 829.788C833.69 843.942 844.313 855.94 850.008 871.553C858.659 894.497 854.689 910.877 845.364 932.116L836.099 933.884C781.556 943.342 744.785 941.363 691.115 932.927C659.254 866.504 713.236 851.229 722.69 793.63C729.754 750.589 710.958 729.114 685.271 699.44C665.651 676.776 658.598 635.167 679.206 610.897C699.679 586.786 704.09 579.295 709.047 547.124Z"/><path fill="#FEFEF0" d="M767.319 124.942C770.202 128.03 786.129 164.718 788.954 170.864C802.863 172.699 817.38 173.802 831.273 175.963C834.262 176.428 835.687 177.377 836.721 180.111C835.645 185.607 809.834 208.168 803.95 213.526C808.88 227.595 814.893 242.812 819.093 256.916C821.312 254.65 823.576 252.429 825.884 250.254C847.746 229.933 880.441 211.423 911.106 212.445C905.071 234.731 889.333 254.225 884.401 278.945C896.717 269.928 907.532 262.276 921.576 255.999C928.582 252.867 949.554 245.031 956.484 247.699C960.882 256.587 920.254 321.695 913.239 333.403C858.544 309.705 822.424 299.443 762.042 299.916C706.952 300.403 670.717 312.115 622.021 334.464C607.837 309.593 587.353 273.313 575.129 247.79C608.678 249.387 626.737 260.019 652.369 279.779C649.098 261.867 630.994 232.527 622.657 213.588C624.126 213.484 625.596 213.402 627.066 213.342C659.644 212.074 694.106 235.692 716.931 256.883C721.367 242.648 726.847 228.032 731.891 213.939C722.852 205.495 713.759 197.01 704.704 188.573C701.701 185.774 697.479 182.569 699.055 178.26C702.858 175.259 739.82 171.758 747.163 170.797C754.109 155.864 760.757 140.06 767.319 124.942Z"/><path fill="#0A0C08" d="M767.423 238.33C771.815 240.094 801.457 267.407 807.057 272.477C794.883 271.791 782.697 271.348 770.506 271.149C756.568 271.104 742.633 271.538 728.726 272.45C741.504 260.94 754.404 249.566 767.423 238.33Z"/><path fill="#FEFEF0" d="M756.94 319.141C767.809 317.562 788.861 319.731 800.002 321.738C824.454 326.143 844.428 337.839 858.692 358.426C861.548 362.549 865.493 371.673 863.678 376.268C857.256 391.93 837.666 383.341 825.735 382.995C806.19 382.429 796.865 399.743 792.435 415.959C796.69 418.076 800.114 419.171 804.575 420.688C805.777 410.043 807.045 399.473 816.772 393.454C834.528 382.466 841.421 405.262 827.901 415.095C823.284 418.454 820.742 418.198 816.258 420.513C821.534 422.447 828.519 419.268 833.101 416.771C845.652 409.932 850.586 394.274 865.122 390.477C871.996 388.561 874.863 394.357 875.903 400.159C878.615 415.277 878.811 431.981 868.614 444.596C860.448 454.699 846.974 458.524 834.691 460.798C830.333 461.605 812.727 461.948 810.751 465.223C817.244 470.814 858.38 459.612 861.456 461.102C864.629 481.96 816.988 472.196 809.916 475.453L810.104 476.285C817.068 478.452 843.089 479.134 852.149 479.793C850.847 483.567 849.617 486.153 847.891 489.772C839.119 490.465 830.972 488.728 822.608 486.476C819.29 485.583 811.905 482.248 808.999 482.84L808.638 484.173C812.851 488.594 835.55 493.021 838.486 497.969C832.946 511.588 792.609 501.553 783.862 493.244C774.999 484.826 773.8 481.993 772.262 470.37C777.5 465.619 790.122 459.188 791.005 453.267C788.281 446.741 778.515 449.398 773.07 450.446C766.876 452.607 744.608 444.687 744.267 454.393C746.493 459.172 757.652 465.283 763.351 470.41C760.833 509.124 698.836 509.394 696.583 497.22C698.364 494.643 700.721 494.806 703.722 493.733C712.366 490.641 722.444 488.157 729.79 482.473L730.558 481.87C720.092 483.545 700.947 492.552 690.253 490.02C687.801 489.439 685.556 482.228 684.668 479.711C689.828 479.684 724.631 479.173 726.341 475.674C722.732 472.42 717.691 475.081 713.21 475.092C695.456 475.139 679.186 480.444 672.414 460.073C681.683 462.411 716.644 469.047 724.555 465.875L725.001 464.172C723.186 462.186 711.494 462.063 707.56 461.472C688.686 458.471 671.266 455.684 661.743 436.769C657.374 428.091 653.519 396.953 664.454 391.053C673.444 386.202 689.434 405.824 695.339 410.893C699.465 414.434 712.384 423.554 719.177 420.46C711.802 417.207 702.487 413.787 700.439 404.97C699.632 401.499 700.265 396.971 702.404 394.042C703.83 392.063 706.034 390.789 708.46 390.542C712.598 390.09 717.552 392.121 720.744 394.701C729.508 401.785 730.253 410.457 731.526 420.628C736.654 419.005 738.486 418.449 743.111 415.839C741.332 407.201 737.679 398.378 731.489 392.114C712.502 372.903 694.134 392.931 676.143 382.618C673.42 381.057 671.666 376.034 671.413 372.708C670.822 364.924 676.783 357.779 681.805 352.099C703.458 327.609 725.872 321.347 756.94 319.141Z"/><path fill="#FEFEF0" d="M681.191 334.039C681.67 333.973 683.095 334.029 683.66 334.036C683.559 336.125 665.825 355.857 662.804 360.194C656.77 368.885 651.924 378.344 648.396 388.32C638.757 416.068 643.907 444.23 657.286 469.85C663.307 480.739 670.118 490.888 675.645 502.087C688.709 528.559 691.322 565.925 672.54 590.285C662.693 603.058 651.346 610.319 646.002 626.857C637.05 654.558 650.471 681.037 666.214 703.176C673.993 714.112 683.61 725.105 689.345 737.025C694.507 747.659 696.915 759.419 696.347 771.227C694.833 810.15 668.535 824.595 656.787 858.478C648.645 881.959 652.727 905.008 663.346 926.68C653.627 924.114 643.949 921.395 634.317 918.521C627.126 916.213 620.258 913.6 613.189 910.947C606.665 883.335 612.57 850.918 631.044 829.216C655.717 800.234 675.392 774.45 653.553 735.421C649.601 728.357 642.336 719.301 636.915 712.807C607.209 677.062 594.881 631.713 630.774 594.304C646.293 578.13 659.965 565.721 661.136 541.738C663.189 499.691 627.902 476.043 621.086 436.773C615.448 404.282 631.05 367.06 655.194 345.314C662.688 338.594 671.501 335.716 681.191 334.039Z"/><path fill="#FEFEF0" d="M849.951 333.825C876.542 333.088 891.594 356.574 902.884 376.297C935.046 432.483 897.597 465.692 878.622 516.096C859.854 563.325 901.182 581.736 918.671 614.765C948.138 670.417 892.55 707.84 874.636 751.617C859.271 789.163 900.191 818.845 915.884 847.449C926.989 867.69 925.139 889.902 918.038 912.044C913.254 913.99 906.683 916.102 901.694 917.859C892.118 921.182 881.615 923.703 871.757 926.268C879.766 911.661 882.984 900.874 883.285 884.041C884.19 833.332 833.584 813.314 838.175 762.603C842.297 717.085 889.405 696.055 892.082 647.345C893.399 623.387 880.467 609.892 865.525 593.914C855.882 583.603 851.038 568.584 849.626 554.609C844.196 500.875 889.745 472.562 892.359 422.97C894.415 383.969 873.35 360.558 849.951 333.825Z"/><path fill="#FEFEF0" d="M934.31 369.377C945.451 371.167 960.124 390.323 965.936 399.939C980.7 424.364 982.077 455.05 977.082 482.567C973.027 504.905 965.454 528.912 970.924 551.76C977.853 578.123 1004.67 593.472 1014.45 619.963C1019.31 633.155 1018.3 637.229 1020.44 650.333C1022.12 660.571 1034.29 672.267 1042.82 677.591C1056.14 685.904 1067.5 687.662 1082.76 684.381C1084.02 679.031 1085.12 670.163 1085.99 664.484C1123.52 667.557 1119.02 692.672 1155.26 694.557C1150.07 706.384 1144.66 715.903 1138.02 726.977C1125.22 719.25 1117.55 712.2 1105.93 703.137C1101.1 699.373 1090.75 694.189 1084.24 695.28C1080.02 698.174 1077.36 712.622 1075.63 718.786C1077.6 719.045 1083.82 719.836 1085.18 720.586C1102.84 730.299 1101.23 742.101 1121.65 752.157C1115.71 761.713 1110.6 767.934 1103.37 776.629C1085.7 764.459 1088.68 750.69 1064.33 748.245L1068.83 734.727C1031.93 747.486 998.861 742.344 984.379 701.644C988.239 693.792 991.406 687.241 994.518 679.282C1019.88 614.427 960.06 598.361 950.324 546.866C941.658 501.034 974.546 462.135 956.994 412.323C949.829 391.99 941.021 384.973 934.669 370.227L934.31 369.377Z"/><path fill="#FEFEF0" d="M897.308 350.178C911.758 352.364 922.847 366.04 930.671 377.333C949.463 404.458 955.317 437.561 944.325 468.963C938.409 485.862 931.238 503.016 927.755 520.645C919.322 557.024 943.949 576.577 963.211 603.039C980.737 627.117 983.502 657.472 969.96 684.501C955.4 713.562 925.861 740.367 935.858 776.097C940.952 794.305 955.784 806.248 966.324 821.132C980.019 840.332 982.305 861.167 978 883.745C972.832 886.849 967.29 889.662 961.947 892.481C955.364 895.898 950.666 898.152 943.809 900.947C952.958 856.845 937.684 838.847 915.088 804.121C907.487 792.44 902.821 776.274 902.952 762.313C903.339 721.166 941.736 697.128 951.4 659.516C961.556 619.988 930.309 601.491 912.779 572.307C886.571 528.675 916.564 494.408 927.6 453.656C935.614 424.065 928.491 397.084 912.021 371.978C907.457 365.021 901.566 357.236 897.308 350.178Z"/><path fill="#FEFEF0" d="M635.502 350.963L636.968 351.81C636.867 355.965 629.368 362.933 626.506 366.862C598.599 405.179 598.115 438.028 616.257 480.645C623.599 496.959 631.925 511.276 634.027 529.352C638.886 571.138 600.261 592.606 585.59 625.314C561.711 678.551 640.863 716.459 630.781 770.824C627.704 787.42 623.538 799.288 614.135 813.537C595.749 843.543 584.948 864.659 588.845 900.517L574.917 893.455C568.245 889.942 562.431 886.838 556.019 882.892C553.715 852.943 559.818 833.177 578.897 810.029C584.593 803.118 593.162 792.097 596.649 784.061C617.126 736.869 572.921 709.693 558.96 671.268C541.522 623.273 586.092 593.797 604.459 556.932C618.667 528.414 602.341 501.47 591.99 475.266C580.842 447.044 583.57 415.775 596.292 388.406C604.649 370.427 616.452 357.9 635.502 350.963Z"/><path fill="#FEFEF0" d="M594.634 372.656C597.062 374.935 595.109 377.316 593.411 380.132C586.189 392.11 581.801 403.179 577.793 416.301C567.793 449.04 575.928 476.2 584.892 507.76C591.247 532.326 585.338 562.349 569.106 581.773C544.606 611.09 522.785 639.736 539.135 680.084C540.764 684.104 547.334 696.18 547.671 699.815C549.604 720.69 525.202 738.417 506.547 741.096C489.48 743.561 478.856 739.804 466.062 730.771L472.343 747.222C452.024 751.898 446.122 761.328 433.088 776.413C426.499 768.513 420.895 760.842 414.98 752.444C436.106 742.243 433.565 729.484 454.448 720.206C456.905 719.464 457.732 719.444 459.464 717.698C459.241 714.52 454.333 696.74 453.286 692.581C420.478 700.204 424.689 713.493 396.154 725.327C390.545 714.887 385.054 703.95 379.598 693.397C405.631 695.256 410.397 679.864 431.547 670.664C437.236 668.19 443.67 667.77 449.812 667.393C450.898 672.18 451.777 677.617 452.677 682.488C474.318 693.746 497.358 680.736 508.81 661.676C518.4 645.718 516.758 627.789 525.491 609.927C537.855 584.64 564.481 572.594 567.024 542.882C569.434 521.823 564.24 508.661 559.389 488.735C553.332 464.393 554.776 438.787 563.531 415.281C569.238 400.058 579.233 379.639 594.634 372.656Z"/><path fill="#FEFEF0" d="M1074.91 528.458C1115.8 525.886 1123.63 552.673 1159.09 560.499C1173.32 563.64 1184.26 559.173 1195.74 551.3C1194.67 563.82 1192.87 576.267 1190.35 588.579L1188.71 594.958C1168.02 603.278 1145.19 595.461 1127.47 583.881C1109.99 572.46 1102.58 564.347 1080.56 563.85C1079.47 558.552 1071.39 531.361 1072.23 529.231L1074.91 528.458Z"/><path fill="#FEFEF0" d="M448.246 529.138C452.382 528.619 457.824 528.88 462.09 528.951C459.254 540.043 456.614 551.183 454.169 562.367C429.426 566.438 425.93 573.189 405.837 586.058C387.862 597.571 369.661 600.547 348.906 595.729L347.32 594.92C344.309 589.146 341.447 560.366 340.57 552.311C361.192 565.477 381.798 563.214 401.931 550.597C418.584 540.161 427.64 531.767 448.246 529.138Z"/><path fill="#FEFEF0" d="M1085.82 602.243C1130.68 601.972 1135.17 643.628 1182.99 622.639C1180.89 630.969 1178.49 638.667 1175.94 646.849L1171.49 659.849C1123.08 664.096 1120.62 630.105 1087.13 633.917C1087 623.349 1086.56 612.786 1085.82 602.243Z"/><path fill="#FEFEF0" d="M963.841 752.004C965.535 752.473 966.855 752.413 967.337 753.98C968.685 758.381 969.195 763.101 970.283 767.597C977.097 795.754 997.783 817.435 1028.26 813.339C1036.89 822.326 1039.24 827.324 1042.99 838.759C1036.46 844.328 1030.08 849.23 1023.28 854.438C1016.17 859.69 1009.38 864.296 1002.05 869.195C1001.25 858.004 1000.72 850.148 996.692 839.342C993.57 830.977 989.279 823.097 983.947 815.936C970.337 797.48 942.292 775.863 963.841 752.004Z"/><path fill="#FEFEF0" d="M569.01 751.094C571.65 752.292 574.867 754.988 576.576 757.297C589.392 773.874 570.628 792.947 559.956 805.518C542.132 826.513 536.648 842.235 533.891 869.25C527.698 865.515 521.188 860.639 515.244 856.376C507.675 850.729 500.921 845.41 494.029 838.96C495.73 832.04 498.585 818.029 504.389 813.194C506.256 811.933 509.943 816.04 512.238 816.076C548.517 816.636 565.061 781.344 569.01 751.094Z"/><path fill="#FEFEF0" d="M437.096 604.868C440.455 604.524 446.296 604.748 449.847 604.779C448.925 612.887 448.686 623.521 448.27 631.837C423.752 634.221 422.23 640.597 402.141 652.962C393.3 658.403 375.981 662.742 365.678 659.937C361.489 648.353 357.595 636.665 354 624.883C394.993 641.836 402.998 610.6 437.096 604.868Z"/><path fill="#FEFEF0" d="M767.689 490.378C770.205 492.31 772.399 495.164 776.074 497.8C789.854 507.69 804.705 511.136 820.958 514.13L820.465 514.65C807.124 528.608 787.871 535.38 768.826 535.774C747.761 535.883 730.417 529.03 715.249 514.372C735.102 509.781 753.047 505.916 767.689 490.378Z"/><path fill="#FEFEF0" d="M1053.8 772.242C1071.5 777.085 1069.24 788.143 1082.65 801.768C1077.25 808.227 1073.2 811.937 1067 817.756C1066.14 818.675 1066.45 818.352 1065.13 818.836C1062.87 816.721 1060.83 808.419 1058.01 804.666C1052.38 797.193 1048.78 796.005 1040.03 794.431L1053.8 772.242Z"/><path fill="#FEFEF0" d="M480.844 772.726C483.209 774.668 491.285 788.97 493.102 792.169C486.906 794.985 481.895 797.58 477.351 802.805C474.16 806.475 472.228 813.627 469.158 816.665L467.517 815.386C462.264 810.232 455.748 803.986 451.236 798.338C466.377 787.161 462.739 778.765 480.844 772.726Z"/></svg>