<?xml version="1.0" encoding="utf-8" ?><svg xmlns="http://www.w3.org/2000/svg" xmlns:xlink="http://www.w3.org/1999/xlink" width="1536" height="1024" viewBox="0 0 1536 1024"><path fill="#0A0C08" d="M0 0L1536 0L1536 1024L0 1024L0 0Z"/><path fill="#FEFEFC" d="M1211.36 199.093C1274.18 193.876 1323.45 250.241 1320.6 311.312C1318.57 354.72 1286.37 400.537 1244.33 413.628C1239.32 415.139 1234.22 416.294 1229.04 417.086C1225.1 417.702 1208.93 418.829 1206.86 420.74L1206.96 422.87C1214.54 428.54 1287.92 410.659 1290.95 430.309C1294.64 454.322 1320.11 476.107 1344.21 465.586C1351.55 462.451 1357.3 456.463 1360.13 449C1362.93 441.529 1362.61 433.241 1359.22 426.014C1355.97 419.122 1350.08 413.834 1342.87 411.347C1320.79 403.794 1298.46 425.837 1308.64 447.758C1309.77 450.18 1311.03 452.566 1312.27 454.928C1287.14 431.59 1300.91 395.463 1325.96 378.472C1341.56 367.684 1360.89 363.746 1379.47 367.572C1401.75 372.075 1420.22 386.283 1432.64 404.974C1448.57 428.935 1449.6 453.58 1444.19 480.675C1437.86 504.543 1423.93 525.7 1404.51 540.947C1380.25 559.672 1349.54 567.986 1319.15 564.06C1278.86 559.036 1254.36 535.966 1230.72 505.696C1199.55 506.711 1178.38 508.644 1152.47 486.044C1137.75 473.208 1127.84 450.77 1127.69 431.291C1127.47 401.978 1124.91 375.035 1148.58 352.938C1155.92 346.094 1164.56 340.712 1174.33 339.069C1191.85 336.123 1206.28 340.173 1220.1 325.139C1225.82 318.925 1229.08 310.763 1228.5 302.144C1227.96 294.034 1224.17 286.486 1218 281.197C1212.49 276.463 1205.32 274.125 1198.07 274.703C1190.69 275.371 1183.88 278.944 1179.14 284.634C1174.62 289.957 1172.43 296.875 1173.07 303.828C1174.31 316.432 1182.16 321.226 1191.05 328.465C1186.84 330.069 1184.52 330.582 1180.09 331.546C1172.95 329.287 1166.2 324.908 1160.36 320.374C1131.28 297.767 1128.56 256.403 1152.25 228.765C1168.72 209.548 1186.76 201.702 1211.36 199.093Z"/><path fill="#FEFEFC" d="M318.617 199.074C321.159 198.882 323.704 198.742 326.251 198.654C427.08 195.796 438.941 329.79 353.895 330.879C362.066 326.798 368.592 322.212 372.171 313.394C374.984 306.329 374.821 298.427 371.719 291.485C368.755 284.737 363.208 279.462 356.321 276.841C322.425 264.047 302.653 313.383 334.215 332.16C350.524 341.863 361.069 336.96 377.327 342.675C391.689 347.712 403.441 358.282 409.968 372.034C412.537 377.522 414.28 383.361 415.142 389.36C417.431 404.261 417.536 445.937 412.019 460.5C403.7 487.359 371.095 506.226 343.832 506.34C315.653 506.457 323.709 499.452 304.399 522.579C293.536 535.666 279.878 546.152 264.43 553.264C206.151 580.715 137.89 557.478 110.254 498.816C96.3398 466.816 97.4261 431.292 117.824 401.442C151.144 352.681 232.826 354.18 246.511 418.285C249.32 431.444 243.351 444.165 235.58 454.673C238.821 447.853 241.09 441.743 240.258 433.994C239.596 427.244 236.157 421.072 230.765 416.958C224.805 412.361 216.943 410.018 209.447 411.049C201.987 412.124 195.282 416.179 190.864 422.286C186.772 427.83 185.139 434.813 186.349 441.596C187.842 449.89 192.547 457.259 199.442 462.102C216.898 474.168 246.902 464.5 251.216 444.427C256.892 418.016 262.94 418.65 287.967 420.703C304.344 422.046 323.766 423.487 340.388 423.408C341.602 423.402 341.845 422.419 342.311 421.556C342.14 420.667 341.957 419.124 340.677 419.083C314.448 418.244 293.601 412.966 272.122 396.605C247.937 378.317 232.052 351.128 227.993 321.076C224.126 291.685 231.077 261.851 249.327 238.27C266.223 216.427 291.195 202.301 318.617 199.074Z"/><path fill="#FEFEFC" d="M331.248 514.208L489.192 514.441C509.853 514.481 534.383 513.179 554.221 515.502C566.316 516.917 566.149 536.738 557.955 545.693C549.14 555.329 541.57 570.498 533.01 580.721C526.395 588.621 521.285 599.666 511.607 604.472C498.991 611.167 480.557 602.442 469.581 612.961C462.184 621.792 453.497 634.759 446.533 644.34L374.589 743.946C365.106 756.918 348.491 781.153 337.971 791.669C327.74 801.977 315.651 810.255 302.343 816.068C247.935 839.213 189.21 810.53 166.92 757.125C162.087 743.854 159.972 734.249 160.061 720.003C160.127 691.55 171.699 664.333 192.142 644.548C218.031 619.026 247.162 611.769 282.079 614.067C290.066 613.325 298.085 614.53 306.045 613.623C323.582 611.624 338.176 627.474 329.385 643.972C324.998 652.205 313.167 664.38 306.915 672.794C299.157 683.236 289.527 696.23 279.734 704.848C272.747 710.457 252.539 704.045 253.039 719.7C253.109 722.619 254.388 725.377 256.571 727.316C263.781 733.602 276.396 728.135 281.286 721.224C305.743 686.663 331.794 653.189 356.786 619.016C366.509 605.721 347.093 607.842 339.82 607.903L301.343 608.16C287.103 608.249 265.871 611.116 263.826 591.76C262.352 577.809 290.468 551.979 299.003 540.793C307.926 529.098 316.386 516.134 331.248 514.208Z"/><path fill="#FEFEFC" d="M965.628 199.823C1004.46 198.313 1046 200.047 1084.96 200.198C1095.79 200.241 1109.29 208.58 1115.91 217.243C1123.8 227.638 1127.2 240.763 1125.35 253.685C1124.28 261.265 1121.3 268.448 1116.69 274.559C1102.22 293.728 1080.88 291.806 1059.47 291.763C1045.61 291.712 1031.76 291.557 1017.91 291.299C1011.03 291.204 1001.14 290.186 995.601 294.377C986.413 308.382 1013.29 305.434 1020.11 305.415L1061.95 305.34C1070.51 305.333 1083.19 304.97 1091.32 306.41C1098.08 307.555 1104.49 310.23 1110.06 314.229C1145.63 339.56 1127.36 397.333 1083.14 397.049C1059.24 396.896 1035.22 397.01 1011.3 396.724C1005.77 396.657 998.394 396.117 994.919 400.965C993.421 405.917 995.277 408.607 999.416 411.194L1058.1 411.019C1067.25 410.994 1083.76 410.395 1092.12 411.917C1098.45 413.06 1104.43 415.648 1109.59 419.481C1119.28 426.689 1124.54 437.386 1126.08 449.213C1127.72 461.955 1124.22 474.828 1116.35 484.981C1100.12 505.778 1079.61 504.181 1056.14 504.042L1019.61 503.987C1003.17 503.986 986.729 504.204 970.3 504.115C958.138 504.049 948.788 500.53 939.066 493.574C912.947 474.888 918.484 446.44 918.519 418.596L918.442 339.311L918.408 279.072C918.264 256.078 914.78 232.93 932.405 214.996C941.855 205.38 952.439 201.135 965.628 199.823Z"/><path fill="#FEFEFC" d="M599.175 514.737C615.678 514.249 633.296 514.621 649.912 514.379C660.176 514.23 677.45 513.789 687.158 514.702C691.727 515.127 696.216 516.178 700.499 517.826C743.579 534.736 735.002 602.689 688.193 607.96C678.692 609.03 668.57 608.556 658.98 608.509L618.526 608.233C615.598 608.21 602.15 607.705 600.042 609.458C591.477 616.578 599.678 622.642 608.466 622.066C611.822 621.847 618.5 621.975 622.492 621.958L662.77 621.807C671.205 621.78 683.207 621.348 691.211 622.824C703.201 625.098 713.808 632.019 720.721 642.079C727.539 652.378 730.021 664.951 727.63 677.07C725.804 685.858 722.433 691.42 716.934 698.304C701.956 717.055 681.226 714.39 659.219 714.355L617.139 714.114C612.07 714.073 601.743 713.567 598.127 716.476C592.244 721.207 597.27 728.851 603.67 729.056C610.932 729.289 618.173 729.092 625.05 729.105C644.012 729.217 662.976 729.155 681.937 728.917C731.257 727.79 745.172 795.297 701.147 817.753C696.365 820.215 691.177 821.791 685.834 822.403C676.844 823.519 652.886 822.85 642.849 822.639C627.679 822.32 606.229 823.613 591.823 822.415C584.687 821.88 577.643 820.486 570.841 818.263C548.269 810.876 529.567 794.802 518.87 773.593C499.994 735.984 509.242 695.281 548.359 675.788C525.304 665.78 501.051 638.684 518.09 613.49C534.868 588.475 553.044 564.371 570.431 539.775C579.929 526.34 582.427 518.9 599.175 514.737Z"/><path fill="#FEFEFC" d="M1048.73 515.487C1057.6 514.734 1110.56 514.046 1116.14 517.955C1124.02 523.483 1147.35 556.177 1154.57 565.825L1238.09 676.809L1261.63 708.498C1267.83 717.003 1276.59 734.977 1290.75 725.989C1298.79 720.885 1295.65 709.195 1285.86 708.873C1281.75 708.737 1277.43 708.53 1273.21 708.224C1266.15 701.791 1260.46 692.889 1254.63 685.311C1244.77 672.484 1234.45 659.755 1225.49 646.281C1221.53 640.331 1219 635.245 1220.56 627.987C1221.47 623.723 1223.6 619.73 1227.38 617.374C1236.57 611.64 1294.76 613.866 1307.11 616.767C1335.82 623.507 1358.36 642.113 1373.72 666.813C1376 670.824 1378.3 675.762 1380.09 680.038C1390.63 705.515 1390.77 734.109 1380.47 759.685C1369.91 785.292 1349.7 805.712 1324.21 816.533C1299.05 826.999 1270.67 827.466 1245.27 817.208C1216.91 805.755 1205.89 789.627 1188.93 765.75L1157.98 721.945C1123.61 674.479 1090.05 626.427 1057.33 577.81C1051.66 569.252 1045.62 560.321 1039.71 551.927C1029.08 536.809 1029.77 522.496 1048.73 515.487Z"/><path fill="#FEFEFC" d="M741.971 199.77L788.953 199.626C798.256 199.618 809.7 199.316 818.862 200.035C844.487 201.821 868.265 214.016 884.671 233.785C906.466 259.566 907.563 283.722 907.543 315.192L907.51 355.28C907.576 408.896 915.359 447.473 869.663 485.111C837.282 509.439 805.817 502.355 767.896 503.662C761.723 503.874 753.293 504.114 747.273 503.379C743.497 502.943 739.848 501.751 736.542 499.876C719.31 489.918 723.845 461.982 723.94 444.529L724.178 377.514L724.29 277.065C724.247 258.089 723.877 238.929 724.289 219.951C724.528 208.982 731.726 202.365 741.971 199.77Z"/><path fill="#0A0C08" d="M812.967 290.181C817.002 291.095 820.103 292.178 820.296 297.029C820.513 302.497 820.358 308.039 820.355 313.52L820.366 348.334C820.373 362.353 821.397 395.58 820.179 408.489C819.068 411.034 817.573 411.587 815.203 412.958C810.222 411.489 808.234 410.697 808.058 404.943C807.831 397.497 807.89 390.045 807.961 382.595C808.234 354.275 807.597 325.905 808.258 297.6C808.354 293.508 810.049 292.581 812.967 290.181Z"/><path fill="#FEFEFC" d="M814.065 513.369C814.553 513.304 815.04 513.238 815.528 513.173C840.644 510.572 865.764 518.061 885.357 533.992C908.056 552.316 920.494 578.464 920.972 607.467C921.187 620.489 918.782 632.314 910.314 642.537C902.657 651.703 891.634 657.401 879.729 658.346C868.059 659.222 856.519 655.428 847.644 647.798C840.381 641.46 834.966 632.484 834.483 622.621C834.178 616.414 835.605 606.047 826.878 606.929C823.454 608.866 822.581 610.853 822.673 614.999C823.436 649.071 823.191 683.151 823.162 717.228C823.158 722.696 821.767 727.532 827.27 730.028C836.201 729.91 833.577 718.485 836.052 710.872C839.434 700.793 846.66 692.459 856.157 687.684C866.423 682.546 878.325 681.763 889.175 685.511C902.321 689.976 909.791 698.459 915.82 710.47C925.266 736.13 916.078 767.187 899.971 788.447C869.208 829.051 811.052 835.326 770.611 805.28C751.083 791 738.054 769.522 734.409 745.603C732.519 732.797 732.992 715.798 733.036 702.63L733.09 651.686C733.172 636.495 732.409 599.165 734.772 586.212C737.093 573.224 742.413 560.956 750.309 550.386C766.226 529.172 788.022 517.073 814.065 513.369Z"/><path fill="#FEFEFC" d="M466.219 199.841C472.195 199.541 478.608 199.398 484.599 199.548C499.42 200.288 515.678 198.424 530.345 200.382C639.784 214.992 651.484 374.351 549.3 409.775C536.675 414.152 524.721 412.347 513.123 417.484C509.808 418.953 510.686 436.172 510.738 439.42C510.924 456.113 512.871 473.986 502.165 487.689C495.014 496.842 484.007 503.262 472.521 504.736C460.218 506.364 447.781 502.932 438.053 495.224C429.079 487.918 423.316 477.392 421.995 465.893C420.892 455.941 422.386 438.652 422.25 428.081C421.978 406.828 421.961 385.466 421.969 364.214L421.946 282.711C421.971 268.455 421.494 253.937 422.741 239.759C424.748 216.936 444.32 201.785 466.219 199.841Z"/><path fill="#0A0C08" d="M517.65 288.88C518.427 288.963 519.201 289.073 519.97 289.21C524.191 289.984 527.625 292.456 529.932 296.057C532.831 300.646 533.742 306.216 532.458 311.491C531.137 316.937 528.72 319.421 524.12 322.206C511.022 325.68 508.593 314.986 509.063 304.721C509.446 296.342 509.398 291.8 517.65 288.88Z"/><path fill="#FEFEFC" d="M978.013 513.388C980.394 513.309 982.83 513.54 985.196 513.814C993.263 514.819 1000.89 518.058 1007.21 523.165C1035.88 546.241 1017.02 584.286 1025.47 610.477C1028.1 618.62 1065.2 607.441 1075.95 621.309C1088.24 637.153 1099.03 652.162 1110.91 668.269C1115.22 674.177 1120.25 680.318 1119.58 688.345C1117.27 707.958 1098.14 705.772 1083.58 705.774C1073.32 705.809 1063.07 705.777 1052.81 705.676C1022.62 705.143 1023.33 701.613 1023.49 731.961L1023.58 770.522C1023.64 784.253 1024.01 794.95 1015.29 806.696C1007.93 816.622 997.746 822.954 985.475 824.652C973.468 826.23 961.334 822.864 951.854 815.326C942.6 808.099 936.042 797.306 935.28 785.651C934.293 770.56 934.618 754.587 934.587 739.437L934.654 648.632L934.574 586.954C934.555 575.492 933.922 562.946 935.277 551.648C938.035 528.647 955.995 515.833 978.013 513.388Z"/><path fill="#FEFEFC" d="M666.183 198.983C686.774 197.214 710.092 209.732 713.812 231.733C715.769 243.314 714.783 258.674 714.872 270.699L714.99 348.669L714.946 422.228C714.967 436.448 715.39 450.645 714.393 464.832C712.846 486.84 696.311 500.978 675.18 503.958C655.924 504.988 633.57 493.357 629.984 474.226C626.509 455.69 628.064 429.478 628.096 410.266L628.039 316.908L627.967 268.061C627.938 258.037 627.854 248.274 628.408 238.251C629.638 215.981 645.314 203.401 666.183 198.983Z"/><path fill="#FEFEFC" d="M1101.03 708.02C1133.48 705.797 1161.56 730.331 1163.73 762.784C1165.9 795.238 1141.32 823.291 1108.87 825.404C1076.5 827.512 1048.54 803.002 1046.38 770.626C1044.21 738.25 1068.67 710.238 1101.03 708.02Z"/><path fill="#FEFEFC" d="M440.488 707.704C472.658 705.221 500.759 729.27 503.283 761.445C505.807 793.619 481.8 821.758 449.637 824.325C417.415 826.895 389.219 802.829 386.691 770.595C384.162 738.362 408.259 710.191 440.488 707.704Z"/><path fill="#FEFEFC" d="M1152.08 515.481C1171.88 514.025 1204.19 515.016 1225.06 516.017C1244.4 532 1268.93 565.511 1283.96 584.639C1290.9 593.467 1279.16 604.319 1273.57 607.461C1262.66 608.803 1205.37 609.923 1197.19 606.61C1194.03 605.328 1190.63 601.458 1188.43 598.925C1180.79 590.112 1145.57 544.802 1141.7 535.759C1140.15 532.133 1140.28 527.682 1141.9 524.099C1144.03 519.379 1147.38 517.249 1152.08 515.481Z"/></svg>