<svg version="1.1" id="Layer_1" xmlns="http://www.w3.org/2000/svg" xmlns:xlink="http://www.w3.org/1999/xlink" x="0px" y="0px"
	 width="100%" viewBox="0 0 624 384" enable-background="new 0 0 624 384" xml:space="preserve">
<path fill="#000000" opacity="1.000000" stroke="none" 
	d="
M298.984253,239.021301 
	C296.809753,242.098434 294.584747,244.205460 290.891266,244.814651 
	C272.347382,247.873276 253.940704,251.650528 235.627151,255.879333 
	C235.023254,256.018768 234.359039,255.897034 233.392288,255.897034 
	C234.023331,252.142090 236.385666,249.727249 238.238174,247.116409 
	C252.691818,226.746155 267.227051,206.433777 281.724976,186.094910 
	C285.502167,180.795975 285.486237,180.775757 280.071716,177.673126 
	C270.682190,172.292709 261.328339,166.847977 251.871536,161.588409 
	C248.890289,159.930344 247.122574,157.840958 246.409668,154.395706 
	C244.321930,144.306183 241.849518,134.296738 239.700119,124.219154 
	C239.058563,121.211090 237.653946,119.085503 234.967194,117.621956 
	C229.411652,114.595703 223.918869,111.454399 218.389603,108.379593 
	C216.435883,107.293137 214.771423,106.138550 214.789551,103.495026 
	C214.900421,87.341606 214.933823,71.187668 215.018860,55.034039 
	C215.021332,54.563698 215.310318,54.094864 215.813843,52.573429 
	C251.204498,71.228279 285.226227,91.906662 320.961975,111.269608 
	C323.397491,106.122856 325.865387,101.473091 327.809845,96.613892 
	C329.277588,92.945992 331.537659,91.641228 335.420319,91.727524 
	C344.242981,91.923615 353.104462,91.274422 361.893524,91.843651 
	C371.895569,92.491447 380.277008,98.080544 389.285431,101.934410 
	C389.099701,105.427971 387.034576,107.574615 385.220520,109.539993 
	C377.276276,118.146820 374.424225,128.497055 373.266754,139.868225 
	C371.685486,155.402893 369.264648,170.851456 367.259277,186.344131 
	C366.842468,189.564072 365.410156,191.779785 362.447693,193.363998 
	C352.171051,198.859604 342.279327,205.160339 331.716614,210.012878 
	C319.946503,215.420074 311.053009,223.727219 303.378693,233.759613 
	C302.064575,235.477524 300.606140,237.085052 298.984253,239.021301 
M361.358276,114.091042 
	C362.121704,112.865219 363.462616,111.888206 362.987854,109.731750 
	C359.662292,108.288849 355.901215,109.622353 352.426331,108.964699 
	C343.044769,107.189163 338.395081,111.679436 335.727264,120.088287 
	C334.098206,125.223038 331.491119,130.047501 329.148163,135.412292 
	C296.748291,117.120872 265.085358,99.245476 233.285721,81.292908 
	C231.615158,84.536972 232.602737,87.254372 232.207809,89.815620 
	C231.409302,94.994240 233.664383,97.767548 238.276062,100.252586 
	C255.283691,109.417297 272.013885,119.097038 288.841187,128.595963 
	C290.413239,129.483383 292.622375,130.057938 292.868256,132.044601 
	C293.571442,137.725983 293.352020,143.422394 292.968018,150.283112 
	C281.018677,143.564194 270.224823,137.494965 259.067749,131.221512 
	C258.763428,135.137970 260.306244,138.044556 260.602997,141.134186 
	C261.116119,146.476990 264.049347,149.497330 268.788696,151.991241 
	C281.313873,158.582214 293.466919,165.876587 305.901154,172.646469 
	C309.612701,174.667236 310.145325,176.237732 307.451477,179.758194 
	C295.809326,194.972748 284.634460,210.535980 273.949036,226.442413 
	C273.191956,227.569443 271.653687,228.531143 272.448914,230.308289 
	C281.379700,230.417007 285.910156,228.327805 291.370422,221.924438 
	C298.783691,213.230789 305.350555,203.855087 316.415314,198.800476 
	C326.844482,194.036240 336.619965,187.857758 346.823059,182.571793 
	C349.893585,180.981018 351.186981,178.767593 351.585632,175.597137 
	C353.306152,161.913452 354.780853,148.189835 356.927246,134.572525 
	C357.975891,127.919586 357.430573,120.876358 361.358276,114.091042 
z"/>
<path fill="#000000" opacity="1.000000" stroke="none" 
	d="
M310.516968,242.586838 
	C314.090576,245.047699 317.087524,244.618790 320.539429,242.704117 
	C345.299072,228.970596 370.136139,215.376083 395.000702,201.832993 
	C398.410797,199.975601 400.001495,197.758347 399.975616,193.605194 
	C399.790680,163.950607 399.782532,134.293716 399.978241,104.639282 
	C400.007812,100.161011 398.444794,97.857635 394.595978,95.717209 
	C369.708618,81.876564 344.934692,67.829697 320.237122,53.652603 
	C317.007568,51.798737 314.690125,52.029331 311.632385,53.810757 
	C300.697632,60.181389 289.547363,66.182091 278.611908,72.551598 
	C276.101227,74.013992 274.159882,74.130348 271.743073,72.672882 
	C267.650299,70.204704 263.192657,68.330490 259.569977,65.398674 
	C259.465576,63.588493 260.688202,63.155628 261.655365,62.612324 
	C278.353302,53.232159 295.100281,43.938309 311.741058,34.458031 
	C314.888306,32.665043 317.391876,32.798058 320.500702,34.565666 
	C351.481995,52.180946 382.526855,69.684570 413.587433,87.159874 
	C416.057404,88.549553 417.149872,90.362709 417.146790,93.173729 
	C417.106140,130.326614 417.093079,167.479599 417.151764,204.632431 
	C417.156647,207.709763 415.873627,209.511932 413.266876,210.951126 
	C381.920624,228.257370 350.610779,245.629532 319.286560,262.975708 
	C317.986786,263.695496 316.608704,264.786682 315.093109,264.092224 
	C309.239105,261.409790 303.429718,258.618622 297.539154,254.358795 
	C302.187469,250.168350 304.100006,244.272278 310.516968,242.586838 
z"/>
<path fill="#000000" opacity="1.000000" stroke="none" 
	d="
M232.822739,198.685760 
	C237.825592,202.718338 243.456665,204.920486 248.710632,207.785873 
	C251.523224,209.319809 252.210434,210.921814 250.204117,213.668701 
	C241.082291,226.157501 245.498795,225.578857 232.499023,218.406342 
	C227.831589,215.831131 223.253326,213.093613 218.572723,210.543259 
	C216.157913,209.227448 214.850998,207.511673 214.856979,204.618011 
	C214.913513,177.288116 214.889252,149.958084 214.911560,122.628105 
	C214.912476,121.501671 214.766586,120.277534 216.241623,118.876579 
	C221.404068,120.819962 226.299362,123.839066 230.907837,127.242447 
	C232.792465,128.634262 232.129868,131.271744 232.135468,133.400070 
	C232.187180,153.064392 232.186234,172.728836 232.235733,192.393158 
	C232.240738,194.380447 232.477036,196.367126 232.822739,198.685760 
z"/>
<path fill="#000000" opacity="1.000000" stroke="none" 
	d="
M225.435089,312.378906 
	C239.413345,302.209442 258.027283,306.204712 263.789917,320.312134 
	C267.875092,330.312988 264.490479,341.672974 255.769058,347.233124 
	C245.644531,353.687805 231.540466,351.982178 223.747925,343.360779 
	C216.761963,335.631805 216.498199,323.385071 223.152649,314.840515 
	C223.764328,314.055084 224.488953,313.357605 225.435089,312.378906 
M229.339081,329.396210 
	C230.490219,336.854095 234.109146,340.859955 240.379501,341.617065 
	C246.030304,342.299316 251.325653,339.395538 253.422440,334.421021 
	C255.638824,329.162811 254.962341,324.172180 251.239517,319.952362 
	C247.755371,316.003082 243.136337,314.728821 238.069641,316.461761 
	C232.382217,318.407043 229.691025,322.712219 229.339081,329.396210 
z"/>
<path fill="#000000" opacity="1.000000" stroke="none" 
	d="
M190.891602,338.344666 
	C185.073822,337.981995 186.311707,342.027954 186.438858,344.886932 
	C186.616379,348.879333 185.385834,350.542175 181.096313,350.475891 
	C176.993866,350.412506 175.544556,349.051727 175.617676,344.939789 
	C175.813156,333.948334 175.796158,322.948792 175.601685,311.957092 
	C175.535141,308.196106 177.062561,306.843933 180.575882,306.966827 
	C186.560287,307.176208 192.557236,306.579163 198.536957,307.436249 
	C205.038620,308.368225 210.487946,310.640747 212.476456,317.635040 
	C214.491104,324.721313 212.928787,330.775299 207.116074,335.546661 
	C206.746078,335.850372 206.494797,336.298645 206.108246,336.779205 
	C207.841949,341.268219 211.726334,344.587494 213.123154,349.260529 
	C206.373245,351.894958 203.031708,350.775726 199.379288,345.206146 
	C197.400085,342.188019 196.472656,337.686859 190.891602,338.344666 
M191.584381,329.673920 
	C193.079590,329.633545 194.605881,329.771851 196.063965,329.518097 
	C199.915970,328.847748 202.727341,326.754181 202.491440,322.581238 
	C202.260681,318.499237 199.543121,316.446014 195.459213,316.336761 
	C193.631210,316.287842 191.799545,316.366364 189.972214,316.306030 
	C187.509079,316.224731 186.223068,317.226349 186.339859,319.825409 
	C186.421890,321.651093 186.466934,323.491577 186.332611,325.310974 
	C186.092529,328.563110 187.551224,329.948120 191.584381,329.673920 
z"/>
<path fill="#000000" opacity="1.000000" stroke="none" 
	d="
M280.818512,350.208618 
	C272.692169,350.390594 272.682220,350.390594 272.674377,342.709137 
	C272.664001,332.546600 272.813049,322.381104 272.599457,312.223053 
	C272.516296,308.267700 274.035400,306.807709 277.826324,306.940491 
	C283.481689,307.138519 289.177002,306.799561 294.794189,307.332825 
	C301.862579,308.003815 307.563507,310.959137 309.619385,318.581116 
	C311.413177,325.231445 309.433777,330.882324 303.006287,336.314423 
	C304.477142,341.130280 308.823395,344.503754 310.557495,349.309326 
	C303.032440,351.894897 299.968628,350.886902 296.222290,344.809631 
	C295.261383,343.250824 294.352875,341.643829 293.239319,340.198395 
	C291.127258,337.456818 288.080933,338.123108 285.392670,338.649017 
	C282.698486,339.176117 283.639984,341.775299 283.335480,343.642365 
	C282.967773,345.897186 284.555084,348.803223 280.818512,350.208618 
M291.205627,316.273987 
	C288.648560,316.831970 285.192047,314.673553 283.610565,318.013977 
	C280.352264,324.896271 284.136749,330.237305 291.580658,329.658691 
	C296.432922,329.281525 299.826691,326.401978 299.502045,322.505585 
	C299.137573,318.130798 296.325806,316.236145 291.205627,316.273987 
z"/>
<path fill="#000000" opacity="1.000000" stroke="none" 
	d="
M513.194702,306.983002 
	C518.883423,306.196564 520.207581,308.925537 520.141174,313.646606 
	C519.980164,325.080627 518.811646,323.800903 530.685730,323.871307 
	C538.553650,323.917969 538.554077,323.870544 538.581787,315.750122 
	C538.585754,314.583862 538.714844,313.401489 538.568665,312.254242 
	C537.998352,307.778290 540.526184,307.015747 544.261353,306.935181 
	C548.271545,306.848633 549.417664,308.599365 549.363159,312.360809 
	C549.203918,323.354645 549.167419,334.355011 549.379639,345.347076 
	C549.458252,349.416290 547.805847,350.449310 544.055420,350.433014 
	C540.318970,350.416779 538.212036,349.729401 538.046753,345.321960 
	C537.588135,333.089569 537.429565,333.232117 525.288757,333.213135 
	C521.421082,333.207092 519.682922,334.373627 520.068970,338.343414 
	C520.245422,340.158417 520.101257,342.005920 520.081177,343.838440 
	C520.011292,350.218384 519.496094,350.573639 513.201233,350.380005 
	C510.243896,350.289032 508.937744,349.153259 508.944031,346.227448 
	C508.968750,334.731628 508.951080,323.235748 508.934509,311.739868 
	C508.930725,309.106476 509.656494,307.108429 513.194702,306.983002 
z"/>
<path fill="#000000" opacity="1.000000" stroke="none" 
	d="
M434.959930,316.632996 
	C432.166870,322.596100 432.973602,323.909851 439.061005,323.979462 
	C442.722168,324.021332 446.384888,324.041779 450.045532,323.983887 
	C453.340363,323.931763 454.282379,325.646454 454.256805,328.700409 
	C454.230316,331.863129 453.001129,333.285004 449.800446,333.202179 
	C445.975189,333.103210 442.141754,333.297821 438.317749,333.178009 
	C435.084442,333.076721 433.864441,334.484802 433.936523,337.664948 
	C434.004578,340.668121 435.296326,341.784363 438.231140,341.713287 
	C443.054718,341.596497 447.885559,341.791687 452.709930,341.691589 
	C455.777832,341.627960 457.283783,342.674377 457.313263,345.990143 
	C457.342010,349.222290 456.101196,350.438904 452.903290,350.396210 
	C444.416321,350.282898 435.925262,350.264801 427.439117,350.406158 
	C423.922577,350.464722 422.765198,348.930298 422.792084,345.608765 
	C422.883575,334.291534 422.912140,322.972137 422.780762,311.655731 
	C422.740204,308.161224 424.209900,306.908386 427.528076,306.929504 
	C435.683044,306.981415 443.842804,307.034790 451.992889,306.808563 
	C456.399719,306.686279 456.755676,309.464508 456.895325,312.621796 
	C457.062042,316.391876 454.412598,316.260498 451.803680,316.273438 
	C446.314789,316.300690 440.826294,316.398590 434.959930,316.632996 
z"/>
<path fill="#000000" opacity="1.000000" stroke="none" 
	d="
M164.215546,341.859253 
	C158.590591,350.367767 149.838730,353.202972 139.490814,350.172394 
	C131.728928,347.899170 127.051682,341.290222 126.821159,331.830719 
	C126.658920,325.172974 126.956970,318.503265 126.762398,311.847321 
	C126.651482,308.053162 128.340179,306.911987 131.836975,306.897675 
	C135.227417,306.883789 137.787064,307.312378 137.776031,311.573029 
	C137.758789,318.232666 137.813705,324.896149 138.031250,331.551666 
	C138.259201,338.524261 141.239609,341.760437 146.995483,341.665039 
	C152.559052,341.572876 155.574570,337.964020 155.649292,331.109192 
	C155.720093,324.614471 155.830200,318.112885 155.609421,311.625000 
	C155.473526,307.631073 157.542923,306.851562 160.854004,306.909698 
	C163.913284,306.963440 166.665405,307.078003 166.338867,311.322083 
	C165.565369,321.374969 168.130600,331.644806 164.215546,341.859253 
z"/>
<path fill="#000000" opacity="1.000000" stroke="none" 
	d="
M90.820557,314.888580 
	C92.766205,311.250397 92.857010,306.738770 98.567955,306.714966 
	C103.066002,306.696259 105.506943,308.069092 107.235558,312.271301 
	C111.597412,322.874817 116.411797,333.291595 120.980591,343.811127 
	C121.755478,345.595306 122.938332,347.316193 122.627525,349.426971 
	C115.467667,351.653564 113.571640,350.983521 110.126572,344.532654 
	C108.951332,342.332031 107.398079,341.372833 104.977287,341.409607 
	C101.152977,341.467743 97.325829,341.470093 93.502144,341.389221 
	C91.202682,341.340607 89.895981,342.358826 88.898323,344.418396 
	C85.659874,351.103851 84.327629,351.599365 75.730164,349.407684 
	C80.743538,337.946625 85.709244,326.594543 90.820557,314.888580 
M96.474014,332.769714 
	C99.027931,332.744354 101.675545,333.387695 104.491585,331.813873 
	C102.751106,327.889526 102.086861,323.823029 99.046021,319.547546 
	C98.177116,324.582703 94.170013,327.739716 96.474014,332.769714 
z"/>
<path fill="#000000" opacity="1.000000" stroke="none" 
	d="
M346.830383,317.297302 
	C351.522614,328.118378 356.047852,338.597382 360.576874,349.085083 
	C353.426697,351.914886 350.418793,350.860962 347.641632,344.894348 
	C347.501587,344.593445 347.450165,344.225891 347.245483,343.984222 
	C342.704712,338.623322 336.649628,342.559204 331.398102,341.463898 
	C328.931458,340.949402 327.116943,341.877014 325.933472,344.551697 
	C323.062805,351.039673 321.749146,351.456482 313.884094,349.659668 
	C313.171356,348.267151 313.954590,347.115234 314.483734,345.917603 
	C319.451019,334.674500 324.539703,323.482452 329.309113,312.155975 
	C330.869232,308.450989 332.902771,306.783752 337.091095,306.760101 
	C341.161987,306.737091 343.219788,308.375549 344.414307,311.959351 
	C344.988861,313.683014 345.903015,315.293488 346.830383,317.297302 
M341.047241,332.091400 
	C341.677612,327.516846 338.612152,324.231689 337.069855,319.598602 
	C334.592255,324.065826 332.793579,327.902893 332.068604,332.308350 
	C335.229523,333.065155 337.831116,332.991852 341.047241,332.091400 
z"/>
<path fill="#000000" opacity="1.000000" stroke="none" 
	d="
M497.505859,309.255798 
	C499.800201,310.907715 502.156372,311.965179 503.086334,314.452972 
	C498.578156,320.885956 498.578156,320.885986 492.539520,317.707886 
	C486.814392,314.694763 480.149567,315.879547 476.217133,320.609375 
	C472.375549,325.229950 472.277679,331.975128 475.982849,336.765625 
	C479.817932,341.724091 486.069702,342.944672 492.129272,339.879181 
	C493.460663,339.205597 494.673035,337.915771 496.035980,337.762817 
	C499.126038,337.416016 500.698914,340.041656 502.197174,342.092438 
	C503.748505,344.215820 501.490112,345.374756 500.182343,346.467316 
	C491.602020,353.635376 476.711456,352.729187 468.596039,344.613007 
	C460.507599,336.523804 459.856537,323.663574 467.076813,314.604401 
	C473.590668,306.431580 485.980286,304.148193 497.505859,309.255798 
z"/>
<path fill="#000000" opacity="1.000000" stroke="none" 
	d="
M383.226685,316.182800 
	C378.376282,315.427826 379.782593,312.018799 379.850464,309.448273 
	C379.918701,306.865021 382.189575,306.984467 383.976501,306.974487 
	C393.792236,306.919678 403.610260,307.051208 413.423431,306.881866 
	C417.265778,306.815582 417.727112,309.070007 417.860809,311.965515 
	C418.010590,315.208801 416.418762,316.211853 413.304535,316.305542 
	C404.087036,316.582916 404.091400,316.690308 404.103210,325.789642 
	C404.111847,332.444550 403.996307,339.102600 404.169250,345.753174 
	C404.272247,349.713196 402.198395,350.402008 398.854767,350.385162 
	C395.477692,350.368134 392.928589,350.015808 392.997681,345.699860 
	C393.117493,338.215118 393.035126,330.726898 393.014984,323.240204 
	C392.996368,316.318146 392.983368,316.318634 386.180939,316.250244 
	C385.349152,316.241882 384.517456,316.225220 383.226685,316.182800 
z"/>
</svg>